# xmcd CD database file
#
# Track frame offsets:
#	150
#	20684
#	39769
#	56983
#	73396
#	86333
#	97079
#	114523
#	134151
#	157732
#	181815
#	199897
#	219724
#	241686
#	260342
#	281015
#	320412
#
# Disc length: 4527 seconds
#
# Revision: 0
# Processed by: cddbd v1.5.2PL0 Copyright (c) Steve Scherf et al.
# Submitted via: CDex 1.40Beta8
#
DISCID=f911ad11
DTITLE=Various Artist - Double Shot of Blues Disk 1
DYEAR=2001
DGENRE=Blues
TTITLE0=You Talk to much/George Thorogood
TTITLE1=Sharp Dressed Men/ ZZTop
TTITLE2=Little Sister/ Ry Cooder
TTITLE3=I guess I showed her/Rober Cray Band
TTITLE4=Going up the country/Canned Heat
TTITLE5=Crazy Mama/J J Cale
TTITLE6=Dizie chicken/Little Feat
TTITLE7=Please send me someone to love/Johnny Diesel
TTITLE8=While my guitar gently weeps/The Jeff Healey Band
TTITLE9=Texas flood/Stevie Ray Vaughan and Double Trouble
TTITLE10=Mustand sally/The Commitments
TTITLE11=Oh pretty woman/Gary Moore
TTITLE12=The ballad of Curis Loew/Lynyrd Skynyrd
TTITLE13=The letter/Joe Cocker
TTITLE14=The weight/The Band
TTITLE15=Stormy Monday (live)/The Allman Brothers Band
TTITLE16=Crossroads/Cream
EXTD=ID3G: 0
EXTT0=
EXTT1=
EXTT2=
EXTT3=
EXTT4=
EXTT5=
EXTT6=
EXTT7=
EXTT8=
EXTT9=
EXTT10=
EXTT11=
EXTT12=
EXTT13=
EXTT14=
EXTT15=
EXTT16=
PLAYORDER=
